<mxfile host="app.diagrams.net" modified="2024-03-08T19:19:57.529Z" agent="Mozilla/5.0 (Windows NT 10.0; Win64; x64) AppleWebKit/537.36 (KHTML, like Gecko) Chrome/122.0.0.0 Safari/537.36" etag="gMbhOvt4Gp-7f6l317E2" version="21.6.9" type="device">
  <diagram name="Page-1" id="yByimT9tM5kEhZQ4DLT7">
    <mxGraphModel dx="1600" dy="836" grid="1" gridSize="10" guides="1" tooltips="1" connect="1" arrows="1" fold="1" page="1" pageScale="1" pageWidth="850" pageHeight="1100" math="0" shadow="0">
      <root>
        <mxCell id="0" />
        <mxCell id="1" parent="0" />
        <mxCell id="PWow9_9A_bk6O4hU7Ig6-5" style="edgeStyle=orthogonalEdgeStyle;rounded=0;orthogonalLoop=1;jettySize=auto;html=1;entryX=0;entryY=0.5;entryDx=0;entryDy=0;fontStyle=1;fontSize=16;fontFamily=Helvetica;" edge="1" parent="1" source="PWow9_9A_bk6O4hU7Ig6-1" target="PWow9_9A_bk6O4hU7Ig6-6">
          <mxGeometry relative="1" as="geometry">
            <mxPoint x="199" y="380" as="targetPoint" />
          </mxGeometry>
        </mxCell>
        <mxCell id="PWow9_9A_bk6O4hU7Ig6-1" value="&lt;h2 style=&quot;font-size: 16px;&quot;&gt;&lt;span style=&quot;font-size: 16px;&quot;&gt;&lt;font data-font-src=&quot;https://fonts.googleapis.com/css?family=Lato&quot; style=&quot;font-size: 16px;&quot;&gt;USERS&lt;/font&gt;&lt;/span&gt;&lt;/h2&gt;" style="pointerEvents=1;shadow=0;dashed=0;html=1;strokeColor=none;fillColor=#505050;labelPosition=center;verticalLabelPosition=bottom;verticalAlign=top;outlineConnect=0;align=center;shape=mxgraph.office.users.users_two;rounded=0;fontStyle=1;fontSize=16;fontFamily=Helvetica;" vertex="1" parent="1">
          <mxGeometry x="39" y="340" width="107" height="80" as="geometry" />
        </mxCell>
        <mxCell id="PWow9_9A_bk6O4hU7Ig6-7" style="edgeStyle=orthogonalEdgeStyle;orthogonalLoop=1;jettySize=auto;html=1;exitX=1;exitY=0.5;exitDx=0;exitDy=0;rounded=0;entryX=0;entryY=0.5;entryDx=0;entryDy=0;fontStyle=1;fontSize=16;fontFamily=Helvetica;" edge="1" parent="1" source="PWow9_9A_bk6O4hU7Ig6-6" target="PWow9_9A_bk6O4hU7Ig6-8">
          <mxGeometry relative="1" as="geometry">
            <mxPoint x="359" y="260" as="targetPoint" />
            <Array as="points">
              <mxPoint x="329" y="380" />
              <mxPoint x="329" y="210" />
            </Array>
          </mxGeometry>
        </mxCell>
        <mxCell id="PWow9_9A_bk6O4hU7Ig6-9" style="edgeStyle=orthogonalEdgeStyle;orthogonalLoop=1;jettySize=auto;html=1;rounded=0;entryX=0;entryY=0.5;entryDx=0;entryDy=0;fontStyle=1;fontSize=16;fontFamily=Helvetica;" edge="1" parent="1" source="PWow9_9A_bk6O4hU7Ig6-6" target="PWow9_9A_bk6O4hU7Ig6-10">
          <mxGeometry relative="1" as="geometry">
            <mxPoint x="369" y="500" as="targetPoint" />
            <Array as="points">
              <mxPoint x="329" y="380" />
              <mxPoint x="329" y="520" />
            </Array>
          </mxGeometry>
        </mxCell>
        <mxCell id="PWow9_9A_bk6O4hU7Ig6-6" value="is logged&lt;br style=&quot;font-size: 16px;&quot;&gt;in?" style="rhombus;whiteSpace=wrap;html=1;rounded=0;fillColor=#dae8fc;strokeColor=#6c8ebf;fontStyle=1;fontSize=16;fontFamily=Helvetica;" vertex="1" parent="1">
          <mxGeometry x="179" y="327" width="120" height="105" as="geometry" />
        </mxCell>
        <mxCell id="PWow9_9A_bk6O4hU7Ig6-23" style="edgeStyle=orthogonalEdgeStyle;orthogonalLoop=1;jettySize=auto;html=1;exitX=1;exitY=0.5;exitDx=0;exitDy=0;entryX=0;entryY=0.5;entryDx=0;entryDy=0;fontSize=16;" edge="1" parent="1" source="PWow9_9A_bk6O4hU7Ig6-8" target="PWow9_9A_bk6O4hU7Ig6-24">
          <mxGeometry relative="1" as="geometry">
            <mxPoint x="750" y="210" as="targetPoint" />
          </mxGeometry>
        </mxCell>
        <mxCell id="PWow9_9A_bk6O4hU7Ig6-44" style="edgeStyle=orthogonalEdgeStyle;orthogonalLoop=1;jettySize=auto;html=1;exitX=0;exitY=1;exitDx=0;exitDy=0;entryX=0.5;entryY=0;entryDx=0;entryDy=0;rounded=0;" edge="1" parent="1" source="PWow9_9A_bk6O4hU7Ig6-8" target="PWow9_9A_bk6O4hU7Ig6-10">
          <mxGeometry relative="1" as="geometry">
            <Array as="points">
              <mxPoint x="529" y="360" />
              <mxPoint x="419" y="360" />
            </Array>
          </mxGeometry>
        </mxCell>
        <mxCell id="PWow9_9A_bk6O4hU7Ig6-8" value="User Dashboard" style="rounded=1;whiteSpace=wrap;html=1;fillColor=#ffe6cc;strokeColor=#d79b00;fontStyle=1;fontSize=16;fontFamily=Helvetica;" vertex="1" parent="1">
          <mxGeometry x="529" y="180" width="150" height="60" as="geometry" />
        </mxCell>
        <mxCell id="PWow9_9A_bk6O4hU7Ig6-11" style="edgeStyle=orthogonalEdgeStyle;orthogonalLoop=1;jettySize=auto;html=1;exitX=1;exitY=0.5;exitDx=0;exitDy=0;rounded=0;entryX=0;entryY=0.5;entryDx=0;entryDy=0;entryPerimeter=0;fontStyle=1;fontSize=16;fontFamily=Helvetica;" edge="1" parent="1" source="PWow9_9A_bk6O4hU7Ig6-10" target="PWow9_9A_bk6O4hU7Ig6-13">
          <mxGeometry relative="1" as="geometry">
            <mxPoint x="559" y="440" as="targetPoint" />
            <Array as="points">
              <mxPoint x="519" y="520" />
              <mxPoint x="519" y="440" />
            </Array>
          </mxGeometry>
        </mxCell>
        <mxCell id="PWow9_9A_bk6O4hU7Ig6-12" style="edgeStyle=orthogonalEdgeStyle;orthogonalLoop=1;jettySize=auto;html=1;rounded=0;entryX=0;entryY=0.5;entryDx=0;entryDy=0;fontStyle=1;fontSize=16;fontFamily=Helvetica;" edge="1" parent="1" source="PWow9_9A_bk6O4hU7Ig6-10" target="PWow9_9A_bk6O4hU7Ig6-14">
          <mxGeometry relative="1" as="geometry">
            <mxPoint x="559" y="600" as="targetPoint" />
            <Array as="points">
              <mxPoint x="519" y="520" />
              <mxPoint x="519" y="600" />
            </Array>
          </mxGeometry>
        </mxCell>
        <mxCell id="PWow9_9A_bk6O4hU7Ig6-10" value="Default &lt;br style=&quot;font-size: 16px;&quot;&gt;Homescreen" style="rounded=1;whiteSpace=wrap;html=1;fillColor=#ffe6cc;strokeColor=#d79b00;fontStyle=1;fontSize=16;fontFamily=Helvetica;" vertex="1" parent="1">
          <mxGeometry x="359" y="490" width="120" height="60" as="geometry" />
        </mxCell>
        <mxCell id="PWow9_9A_bk6O4hU7Ig6-17" style="edgeStyle=orthogonalEdgeStyle;orthogonalLoop=1;jettySize=auto;html=1;exitX=0.5;exitY=0;exitDx=0;exitDy=0;entryX=0.5;entryY=1;entryDx=0;entryDy=0;fontStyle=1;fontSize=16;fontFamily=Helvetica;" edge="1" parent="1" source="PWow9_9A_bk6O4hU7Ig6-13" target="PWow9_9A_bk6O4hU7Ig6-8">
          <mxGeometry relative="1" as="geometry" />
        </mxCell>
        <mxCell id="PWow9_9A_bk6O4hU7Ig6-13" value="Login&lt;br style=&quot;font-size: 16px;&quot;&gt;Page" style="rounded=1;whiteSpace=wrap;html=1;fillColor=#ffe6cc;strokeColor=#d79b00;fontStyle=1;fontSize=16;fontFamily=Helvetica;" vertex="1" parent="1">
          <mxGeometry x="559" y="410" width="90" height="60" as="geometry" />
        </mxCell>
        <mxCell id="PWow9_9A_bk6O4hU7Ig6-15" style="edgeStyle=orthogonalEdgeStyle;orthogonalLoop=1;jettySize=auto;html=1;entryX=1;entryY=0.5;entryDx=0;entryDy=0;rounded=0;fontStyle=1;fontSize=16;fontFamily=Helvetica;" edge="1" parent="1" source="PWow9_9A_bk6O4hU7Ig6-14" target="PWow9_9A_bk6O4hU7Ig6-13">
          <mxGeometry relative="1" as="geometry">
            <Array as="points">
              <mxPoint x="689" y="600" />
              <mxPoint x="689" y="440" />
            </Array>
          </mxGeometry>
        </mxCell>
        <mxCell id="PWow9_9A_bk6O4hU7Ig6-14" value="Register&lt;br style=&quot;font-size: 16px;&quot;&gt;Page" style="rounded=1;whiteSpace=wrap;html=1;fillColor=#ffe6cc;strokeColor=#d79b00;fontStyle=1;fontSize=16;fontFamily=Helvetica;" vertex="1" parent="1">
          <mxGeometry x="559" y="570" width="90" height="60" as="geometry" />
        </mxCell>
        <mxCell id="PWow9_9A_bk6O4hU7Ig6-16" value="Upon Registration Successful" style="text;html=1;align=center;verticalAlign=middle;resizable=0;points=[];autosize=1;strokeColor=none;fillColor=none;rotation=90;fontStyle=0;fontSize=16;fontFamily=Helvetica;" vertex="1" parent="1">
          <mxGeometry x="586" y="505" width="230" height="30" as="geometry" />
        </mxCell>
        <mxCell id="PWow9_9A_bk6O4hU7Ig6-18" value="&lt;span style=&quot;font-size: 16px;&quot;&gt;When login&lt;br style=&quot;font-size: 16px;&quot;&gt;credentials correct&lt;/span&gt;" style="text;html=1;align=center;verticalAlign=middle;resizable=0;points=[];autosize=1;strokeColor=none;fillColor=none;rotation=90;fontStyle=0;fontSize=16;fontFamily=Helvetica;" vertex="1" parent="1">
          <mxGeometry x="549" y="300" width="150" height="50" as="geometry" />
        </mxCell>
        <mxCell id="PWow9_9A_bk6O4hU7Ig6-21" value="Yes" style="text;html=1;align=center;verticalAlign=middle;resizable=0;points=[];autosize=1;strokeColor=none;fillColor=none;rotation=-90;fontSize=16;" vertex="1" parent="1">
          <mxGeometry x="294" y="270" width="50" height="30" as="geometry" />
        </mxCell>
        <mxCell id="PWow9_9A_bk6O4hU7Ig6-22" value="No" style="text;html=1;align=center;verticalAlign=middle;resizable=0;points=[];autosize=1;strokeColor=none;fillColor=none;rotation=-90;fontSize=16;" vertex="1" parent="1">
          <mxGeometry x="299" y="432" width="40" height="30" as="geometry" />
        </mxCell>
        <mxCell id="PWow9_9A_bk6O4hU7Ig6-29" style="edgeStyle=orthogonalEdgeStyle;orthogonalLoop=1;jettySize=auto;html=1;exitX=1;exitY=0.5;exitDx=0;exitDy=0;rounded=0;entryX=0;entryY=0.5;entryDx=0;entryDy=0;fontSize=16;" edge="1" parent="1" source="PWow9_9A_bk6O4hU7Ig6-24" target="PWow9_9A_bk6O4hU7Ig6-31">
          <mxGeometry relative="1" as="geometry">
            <mxPoint x="1000" y="110" as="targetPoint" />
            <Array as="points">
              <mxPoint x="940" y="210" />
              <mxPoint x="940" y="110" />
            </Array>
          </mxGeometry>
        </mxCell>
        <mxCell id="PWow9_9A_bk6O4hU7Ig6-30" style="edgeStyle=orthogonalEdgeStyle;orthogonalLoop=1;jettySize=auto;html=1;rounded=0;entryX=0;entryY=0.5;entryDx=0;entryDy=0;fontSize=16;" edge="1" parent="1" source="PWow9_9A_bk6O4hU7Ig6-24" target="PWow9_9A_bk6O4hU7Ig6-32">
          <mxGeometry relative="1" as="geometry">
            <mxPoint x="1000" y="310" as="targetPoint" />
            <Array as="points">
              <mxPoint x="940" y="210" />
              <mxPoint x="940" y="310" />
            </Array>
          </mxGeometry>
        </mxCell>
        <mxCell id="PWow9_9A_bk6O4hU7Ig6-24" value="&lt;b style=&quot;font-size: 16px;&quot;&gt;user &lt;br style=&quot;font-size: 16px;&quot;&gt;type&lt;/b&gt;" style="rhombus;whiteSpace=wrap;html=1;fillColor=#dae8fc;strokeColor=#6c8ebf;fontSize=16;" vertex="1" parent="1">
          <mxGeometry x="760" y="168.75" width="120" height="82.5" as="geometry" />
        </mxCell>
        <mxCell id="PWow9_9A_bk6O4hU7Ig6-35" style="edgeStyle=orthogonalEdgeStyle;orthogonalLoop=1;jettySize=auto;html=1;entryX=0.5;entryY=1;entryDx=0;entryDy=0;rounded=0;shape=flexArrow;fillColor=#60a917;fontSize=16;strokeColor=none;" edge="1" parent="1" source="PWow9_9A_bk6O4hU7Ig6-28" target="PWow9_9A_bk6O4hU7Ig6-32">
          <mxGeometry relative="1" as="geometry" />
        </mxCell>
        <mxCell id="PWow9_9A_bk6O4hU7Ig6-36" style="edgeStyle=orthogonalEdgeStyle;orthogonalLoop=1;jettySize=auto;html=1;entryX=1;entryY=0.5;entryDx=0;entryDy=0;rounded=0;shape=flexArrow;fillColor=#60a917;fontSize=16;strokeColor=none;" edge="1" parent="1" source="PWow9_9A_bk6O4hU7Ig6-28" target="PWow9_9A_bk6O4hU7Ig6-31">
          <mxGeometry relative="1" as="geometry">
            <mxPoint x="1300" y="120" as="targetPoint" />
            <Array as="points">
              <mxPoint x="1280" y="474" />
              <mxPoint x="1280" y="110" />
            </Array>
          </mxGeometry>
        </mxCell>
        <mxCell id="PWow9_9A_bk6O4hU7Ig6-37" style="edgeStyle=orthogonalEdgeStyle;orthogonalLoop=1;jettySize=auto;html=1;entryX=1;entryY=1;entryDx=0;entryDy=0;rounded=0;shape=flexArrow;fillColor=#60a917;fontSize=16;strokeColor=none;" edge="1" parent="1" source="PWow9_9A_bk6O4hU7Ig6-28" target="PWow9_9A_bk6O4hU7Ig6-8">
          <mxGeometry relative="1" as="geometry">
            <Array as="points">
              <mxPoint x="901" y="320" />
              <mxPoint x="679" y="320" />
            </Array>
          </mxGeometry>
        </mxCell>
        <mxCell id="PWow9_9A_bk6O4hU7Ig6-38" style="edgeStyle=orthogonalEdgeStyle;orthogonalLoop=1;jettySize=auto;html=1;entryX=1;entryY=0;entryDx=0;entryDy=0;rounded=0;shape=flexArrow;fillColor=#60a917;fontSize=16;strokeColor=none;" edge="1" parent="1" source="PWow9_9A_bk6O4hU7Ig6-28" target="PWow9_9A_bk6O4hU7Ig6-13">
          <mxGeometry relative="1" as="geometry">
            <Array as="points">
              <mxPoint x="780" y="474" />
              <mxPoint x="780" y="370" />
              <mxPoint x="649" y="370" />
            </Array>
          </mxGeometry>
        </mxCell>
        <mxCell id="PWow9_9A_bk6O4hU7Ig6-39" style="edgeStyle=orthogonalEdgeStyle;orthogonalLoop=1;jettySize=auto;html=1;entryX=0.75;entryY=1;entryDx=0;entryDy=0;rounded=0;shape=flexArrow;fillColor=#60a917;fontSize=16;strokeColor=none;" edge="1" parent="1" source="PWow9_9A_bk6O4hU7Ig6-28" target="PWow9_9A_bk6O4hU7Ig6-14">
          <mxGeometry relative="1" as="geometry">
            <Array as="points">
              <mxPoint x="780" y="474" />
              <mxPoint x="780" y="700" />
              <mxPoint x="626" y="700" />
            </Array>
          </mxGeometry>
        </mxCell>
        <mxCell id="PWow9_9A_bk6O4hU7Ig6-28" value="" style="shape=image;html=1;verticalAlign=top;verticalLabelPosition=bottom;labelBackgroundColor=#ffffff;imageAspect=0;aspect=fixed;image=https://miro.medium.com/v2/resize:fit:300/1*R4c8lHBHuH5qyqOtZb3h-w.png;fontSize=16;" vertex="1" parent="1">
          <mxGeometry x="837" y="410" width="128" height="128" as="geometry" />
        </mxCell>
        <mxCell id="PWow9_9A_bk6O4hU7Ig6-31" value="Student quiz pages &lt;br style=&quot;font-size: 16px;&quot;&gt;&amp;amp; score card" style="rounded=1;whiteSpace=wrap;html=1;fillColor=#ffe6cc;strokeColor=#d79b00;fontStyle=1;fontSize=16;fontFamily=Helvetica;" vertex="1" parent="1">
          <mxGeometry x="1000" y="80" width="180" height="60" as="geometry" />
        </mxCell>
        <mxCell id="PWow9_9A_bk6O4hU7Ig6-32" value="Addition of new&lt;br style=&quot;font-size: 16px;&quot;&gt;quizes by teachers" style="rounded=1;whiteSpace=wrap;html=1;fillColor=#ffe6cc;strokeColor=#d79b00;fontStyle=1;fontSize=16;fontFamily=Helvetica;" vertex="1" parent="1">
          <mxGeometry x="1000" y="280" width="180" height="60" as="geometry" />
        </mxCell>
        <mxCell id="PWow9_9A_bk6O4hU7Ig6-33" value="Student" style="text;html=1;align=center;verticalAlign=middle;resizable=0;points=[];autosize=1;strokeColor=none;fillColor=none;rotation=-90;fontSize=16;" vertex="1" parent="1">
          <mxGeometry x="890" y="150" width="80" height="30" as="geometry" />
        </mxCell>
        <mxCell id="PWow9_9A_bk6O4hU7Ig6-34" value="Teacher" style="text;html=1;align=center;verticalAlign=middle;resizable=0;points=[];autosize=1;strokeColor=none;fillColor=none;rotation=-90;fontSize=16;" vertex="1" parent="1">
          <mxGeometry x="890" y="250" width="80" height="30" as="geometry" />
        </mxCell>
        <mxCell id="PWow9_9A_bk6O4hU7Ig6-45" value="When logged out" style="text;html=1;align=center;verticalAlign=middle;resizable=0;points=[];autosize=1;strokeColor=none;fillColor=none;fontSize=16;" vertex="1" parent="1">
          <mxGeometry x="395" y="334" width="140" height="30" as="geometry" />
        </mxCell>
        <mxCell id="PWow9_9A_bk6O4hU7Ig6-46" value="Firebase realtime &lt;br style=&quot;font-size: 16px;&quot;&gt;database" style="text;html=1;align=center;verticalAlign=middle;resizable=0;points=[];autosize=1;strokeColor=none;fillColor=none;fontSize=16;fontStyle=1" vertex="1" parent="1">
          <mxGeometry x="821" y="535" width="160" height="50" as="geometry" />
        </mxCell>
      </root>
    </mxGraphModel>
  </diagram>
</mxfile>
